PathFileType	4	(X/Y/Z)	/Users/itak/Documents/Research/Walk-IL/dataset/trc/00439_00167.trc
DataRate	CameraRate	NumFrames	NumMarkers	Units	OrigDataRate	OrigDataStartFrame	OrigNumFrames
100.000000	100.000000	4	53	mm	100.000000	326	523
Frame#	Time	RPSI			LPSI			L3			STRN			T10			C7			CLAV			RBAK			LBAK			LSHO			LUPA			LAEL			LAOL			LWTS			LWPS			LFRA			LIFD			LHPS			LHTS			RSHO			RUPA			RAEL			RAOL			RWTS			RWPS			RFRA			RIFD			RHTS			RHPS			RBHD			LFHD			RFHD			LBHD			LHIP			RHIP			RASI			LASI			LKNE			LTHI			LANK			LTIP			LTOE			LMT1			LMT5			LHEE			RKNE			RTHI			RANK			RTIP			RTOE			RMT1			RMT5			RHEE			
		X1	Y1	Z1	X2	Y2	Z2	X3	Y3	Z3	X4	Y4	Z4	X5	Y5	Z5	X6	Y6	Z6	X7	Y7	Z7	X8	Y8	Z8	X9	Y9	Z9	X10	Y10	Z10	X11	Y11	Z11	X12	Y12	Z12	X13	Y13	Z13	X14	Y14	Z14	X15	Y15	Z15	X16	Y16	Z16	X17	Y17	Z17	X18	Y18	Z18	X19	Y19	Z19	X20	Y20	Z20	X21	Y21	Z21	X22	Y22	Z22	X23	Y23	Z23	X24	Y24	Z24	X25	Y25	Z25	X26	Y26	Z26	X27	Y27	Z27	X28	Y28	Z28	X29	Y29	Z29	X30	Y30	Z30	X31	Y31	Z31	X32	Y32	Z32	X33	Y33	Z33	X34	Y34	Z34	X35	Y35	Z35	X36	Y36	Z36	X37	Y37	Z37	X38	Y38	Z38	X39	Y39	Z39	X40	Y40	Z40	X41	Y41	Z41	X42	Y42	Z42	X43	Y43	Z43	X44	Y44	Z44	X45	Y45	Z45	X46	Y46	Z46	X47	Y47	Z47	X48	Y48	Z48	X49	Y49	Z49	X50	Y50	Z50	X51	Y51	Z51	X52	Y52	Z52	X53	Y53	Z53	

327	3.26	488.5946960449219	921.5501098632812	617.665771484375	554.1276245117188	918.6412963867188	490.2571105957031	525.8529663085938	1023.823974609375	567.5807495117188	758.013671875	1216.936279296875	707.3187255859375	511.1228637695312	1147.157836914062	554.3429565429688	556.8795776367188	1413.369384765625	605.8682861328125	724.0388793945312	1331.142822265625	692.3256225585938	455.8988647460938	1288.861083984375	647.9348754882812	586.6378784179688	1375.373291015625	503.2557678222656	718.8971557617188	1398.413818359375	497.5543212890625	766.9020385742188	1284.5244140625	405.8872680664062	801.8015747070312	1069.169555664062	378.9083557128906	698.85302734375	1057.273315429688	385.5420227050781	822.9953002929688	850.6351928710938	437.998779296875	825.1392822265625	847.2972412109375	363.8268432617188	819.9417114257812	980.60400390625	373.6982727050781	780.0454711914062	686.16845703125	407.6322021484375	806.5146484375	765.3518676757812	355.5867614746094	814.9891967773438	756.494140625	425.84765625	529.4867553710938	1378.1162109375	777.0685424804688	473.8252258300781	1316.2099609375	831.1861572265625	447.8712158203125	1028.958862304688	880.1725463867188	422.0807189941406	1011.119079589844	819.153076171875	569.0642700195312	834.5510864257812	893.0338745117188	485.8112487792969	814.0687255859375	910.172119140625	449.2715454101562	970.7785034179688	891.3359985351562	575.9345703125	675.7197265625	898.0076293945312	581.6895751953125	735.3787841796875	910.3329467773438	507.3941650390625	728.4688720703125	916.6798095703125	565.4944458007812	1606.221069335938	721.1419067382812	763.8401489257812	1632.677001953125	670.3268432617188	689.5516967773438	1630.806518554688	777.8587646484375	653.4849853515625	1613.586181640625	566.5083618164062	726.3976440429688	815.010498046875	448.12744140625	546.9163818359375	826.7518920898438	803.3950805664062	658.98828125	876.5779418945312	782.8024291992188	783.40966796875	861.77392578125	560.5831909179688	748.3482055664062	399.1795959472656	454.5550842285156	782.2595825195312	550.4409790039062	466.1720275878906	398.6236572265625	213.7660369873047	271.6887512207031	632.8724975585938	309.3844604492188	379.7665100097656	441.6401672363281	33.76365661621094	409.5559997558594	415.35205078125	106.8899688720703	411.7962036132812	452.7524108886719	82.00554656982422	310.6305541992188	364.7970581054688	270.5559692382812	300.2859191894531	695.4780883789062	450.3025512695312	813.3552856445312	614.3936157226562	701.5736694335938	838.8643798828125	654.75439453125	38.37010192871094	746.304443359375	691.7265014648438	301.8384704589844	808.9556884765625	864.5709838867188	37.98096084594727	822.4853515625	826.6149291992188	43.12376022338867	757.9175415039062	753.4755859375	41.91758346557617	838.0337524414062	621.409912109375	31.40706634521484	672.923583984375	
328	3.27	495.6912536621094	922.716796875	623.0863037109375	561.7673950195312	919.2740478515625	495.8969421386719	532.7290649414062	1025.021118164062	573.6112060546875	765.350341796875	1218.448364257812	712.290771484375	517.7821044921875	1148.452026367188	560.7183837890625	563.5928344726562	1414.73095703125	612.093505859375	731.3932495117188	1332.63427734375	697.2489624023438	462.8213500976562	1290.276245117188	654.9985961914062	592.5264282226562	1376.5751953125	509.3211975097656	724.7393798828125	1399.621337890625	502.4185791015625	771.704833984375	1285.73779296875	410.1822509765625	806.0067749023438	1070.3984375	382.4964294433594	703.0863647460938	1058.811889648438	389.8075561523438	826.6604614257812	851.5137329101562	441.1755065917969	828.7281494140625	848.4208984375	366.9915466308594	823.923828125	981.807861328125	377.0636901855469	781.2049560546875	687.600830078125	410.3735961914062	809.0707397460938	766.5552368164062	358.5366516113281	817.3717651367188	757.3114013671875	428.7894287109375	537.5419921875	1379.535034179688	783.5003051757812	482.5412902832031	1317.628784179688	838.2191772460938	458.06982421875	1030.670532226562	889.4592895507812	431.8719787597656	1012.079772949219	828.6206665039062	581.5866088867188	838.0377807617188	902.8233032226562	498.6769714355469	816.7014770507812	920.694580078125	460.2461242675781	972.611083984375	900.8391723632812	590.8213500976562	679.4461669921875	909.8197021484375	595.7559814453125	739.3413696289062	921.3909301757812	521.5678100585938	731.3345336914062	928.0756225585938	572.6525268554688	1607.515380859375	726.9744262695312	770.9232788085938	1634.120239257812	676.1348266601562	696.5723266601562	1632.056030273438	783.5272216796875	660.5753784179688	1615.10302734375	572.287353515625	734.97119140625	816.2537841796875	454.9175415039062	553.000732421875	827.71044921875	808.9368896484375	665.3989868164062	877.5573120117188	789.0000610351562	791.1270141601562	863.6804809570312	567.2769165039062	767.1630859375	401.7947692871094	465.4587097167969	797.7980346679688	553.1219482421875	474.8148803710938	416.8954772949219	216.3804321289062	284.4361267089844	651.2803344726562	312.1699523925781	391.2176513671875	465.2484741210938	35.49645233154297	419.7530517578125	437.3131103515625	108.2706680297852	423.2073059082031	474.7790832519531	85.85974884033203	321.461181640625	381.6360473632812	271.8661804199219	313.8848571777344	698.226806640625	449.7218017578125	815.990966796875	619.8863525390625	701.87109375	843.4829711914062	654.7927856445312	38.42376327514648	746.34423828125	693.4107055664062	301.2973022460938	810.512939453125	864.6041259765625	37.85617446899414	822.626953125	826.578369140625	43.0389518737793	758.1104736328125	753.4296875	41.87174987792969	838.1668701171875	621.4249877929688	31.62919235229492	672.9398193359375	
329	3.28	502.7048645019531	923.84130859375	628.2830200195312	569.4638061523438	920.0390014648438	501.4037170410156	539.553955078125	1026.24072265625	579.4258422851562	772.568115234375	1220.061401367188	717.11572265625	524.3529052734375	1149.770263671875	566.8782958984375	570.1945190429688	1416.133056640625	618.1609497070312	738.6314086914062	1334.221801757812	701.9813842773438	469.6300048828125	1291.757934570312	661.8956298828125	598.2681274414062	1377.788696289062	515.2330932617188	730.4117431640625	1400.873046875	507.0839233398438	776.2771606445312	1287.028686523438	414.2391357421875	810.0562133789062	1071.724243164062	385.7947998046875	707.1985473632812	1060.35205078125	393.9577026367188	830.6947631835938	852.7127685546875	444.224853515625	832.4033813476562	849.70361328125	370.0411376953125	827.8280639648438	983.112548828125	380.1728820800781	783.9598388671875	689.0889282226562	413.5734558105469	812.252685546875	767.8659057617188	361.6238708496094	820.7740478515625	758.4932861328125	431.8319702148438	545.5147705078125	1381.026489257812	789.7593994140625	491.2077331542969	1319.126831054688	845.097900390625	468.3133239746094	1032.524169921875	898.6328125	441.6604919433594	1013.182006835938	838.0288696289062	593.9876098632812	841.6163940429688	912.4773559570312	511.4254760742188	819.4588623046875	931.0711059570312	471.2349243164062	974.5887451171875	910.2156372070312	605.5440673828125	683.32861328125	921.5869140625	609.6287231445312	743.4201049804688	932.3584594726562	535.5602416992188	734.3784790039062	939.3706665039062	579.7485961914062	1608.862182617188	732.6248779296875	777.9713134765625	1635.596313476562	681.7319946289062	703.5787353515625	1633.342041015625	788.9923095703125	667.6065063476562	1616.6494140625	577.878662109375	743.8079833984375	817.8073120117188	461.6898193359375	558.84423828125	828.5924682617188	814.2783203125	671.537353515625	878.542724609375	795.188720703125	798.6846313476562	865.7214965820312	574.0839233398438	785.7271118164062	404.8055419921875	476.4846496582031	813.3013916015625	556.1958618164062	483.5585327148438	435.6976623535156	217.4353942871094	297.7252807617188	669.768310546875	314.827392578125	402.9456481933594	490.7512512207031	36.97475433349609	430.9864501953125	460.5178833007812	108.7846221923828	435.4169921875	498.1912536621094	88.91409301757812	333.2046203613281	398.732177734375	271.4673461914062	327.8550109863281	700.636474609375	449.1531372070312	818.456787109375	625.0149536132812	702.0923461914062	847.9092407226562	654.8286743164062	38.48091888427734	746.38427734375	694.8833618164062	300.8031921386719	811.9415893554688	864.619140625	37.7410888671875	822.759521484375	826.5291137695312	42.95426940917969	758.3067016601562	753.3837890625	41.82491302490234	838.2923583984375	621.4456787109375	31.85268592834473	672.9520263671875	
330	3.29	509.65966796875	924.9487915039062	633.271240234375	577.1971435546875	920.9259033203125	506.7844543457031	546.330322265625	1027.504028320312	585.0809936523438	779.6842041015625	1221.781372070312	721.8099365234375	530.8306274414062	1151.1103515625	572.8613891601562	576.6932983398438	1417.571533203125	624.0616455078125	745.7545166015625	1335.91015625	706.538330078125	476.3365478515625	1293.302612304688	668.6268310546875	603.8865356445312	1379.010009765625	520.9984741210938	735.9314575195312	1402.181640625	511.572021484375	780.6458740234375	1288.414184570312	418.0843200683594	813.948974609375	1073.159790039062	388.8403930664062	711.1887817382812	1061.906372070312	398.0258483886719	835.0853881835938	854.2305908203125	447.1447448730469	836.1408081054688	851.1527099609375	372.9747924804688	831.6459350585938	984.530029296875	383.0506286621094	788.3011474609375	690.60302734375	417.1947021484375	816.0353393554688	769.28271484375	364.8348999023438	825.1838989257812	760.0302124023438	434.9562683105469	553.3901977539062	1382.595092773438	795.8323974609375	499.7971496582031	1320.719604492188	851.804443359375	478.6055603027344	1034.526733398438	907.65673828125	451.4559020996094	1014.436401367188	847.365234375	606.2700805664062	845.2687377929688	921.9649658203125	524.05615234375	822.3311767578125	941.2918701171875	482.2375793457031	976.714599609375	919.4658813476562	620.0578002929688	687.33447265625	933.2449951171875	623.2940673828125	747.589599609375	943.1771240234375	549.351318359375	737.6052856445312	950.5473022460938	586.784912109375	1610.269409179688	738.1044921875	784.9863891601562	1637.091430664062	687.1294555664062	710.5773315429688	1634.654907226562	794.27001953125	674.5768432617188	1618.225341796875	583.3013305664062	752.8919067382812	819.6367797851562	468.4577941894531	564.4716186523438	829.4017944335938	819.400146484375	677.4205932617188	879.5296020507812	801.356689453125	806.0706787109375	867.8729248046875	581.003662109375	803.9918212890625	408.1486511230469	487.6344604492188	828.7508544921875	559.6259155273438	492.4487915039062	454.9893493652344	216.9619598388672	311.4922790527344	688.2930908203125	317.2829895019531	414.9398498535156	517.9611206054688	38.09604263305664	443.1214904785156	484.8928527832031	108.4685745239258	448.3478698730469	522.7627563476562	91.14642333984375	345.7416381835938	416.115234375	269.3802795410156	342.1641540527344	702.7322387695312	448.603271484375	820.7474975585938	629.7887573242188	702.2439575195312	852.1519165039062	654.8657836914062	38.54388427734375	746.4208984375	696.1732788085938	300.3576354980469	813.2348022460938	864.6204223632812	37.64243698120117	822.8783569335938	826.4749755859375	42.87211608886719	758.495849609375	753.3419189453125	41.78031921386719	838.4031372070312	621.4735107421875	32.07022857666016	672.9603271484375	
